<svg xmlns="http://www.w3.org/2000/svg" viewBox="0 0 280.35 34.38">
  <defs>
    <style>
      .cls-1 {
        fill: #d90127;
      }
    </style>
  </defs>
  <g id="Layer_2" data-name="Layer 2">
    <g id="Layer_1-2" data-name="Layer 1">
      <path
        d="M63.25,7.15A5.52,5.52,0,0,0,58.81,5a5.12,5.12,0,0,0-5.19,5.37,5,5,0,0,0,5.27,5.25,5.82,5.82,0,0,0,4.36-2.05v6a14.51,14.51,0,0,1-4.47.9,10.86,10.86,0,0,1-7.3-2.85,9.43,9.43,0,0,1-3.12-7.31,10.08,10.08,0,0,1,2.86-7.08A10.57,10.57,0,0,1,58.63.15a11.86,11.86,0,0,1,4.62,1Z" />
      <path
        d="M86.51,10c0,6.24-4.54,10.65-10.81,10.65S64.89,16.24,64.89,10C64.89,4.17,70.07.07,75.7.07S86.51,4.17,86.51,10ZM70.18,10a5.52,5.52,0,1,0,11,0,5.54,5.54,0,0,0-11,0Z" />
      <path
        d="M148.86,9.93c0,6.24-4.54,10.64-10.81,10.64s-10.81-4.4-10.81-10.64c0-5.84,5.18-9.93,10.81-9.93S148.86,4.09,148.86,9.93Zm-16.33,0a5.52,5.52,0,1,0,11,0,5.54,5.54,0,0,0-11,0Z" />
      <path d="M88.21.66h5.08l9.29,11.74h.06V.66h5.07v19.2h-5.07L93.34,8.1h0V19.86H88.21Z" />
      <path
        d="M122.57,5.66a6.78,6.78,0,0,0-3.87-1.27c-1.07,0-2.49.53-2.49,1.6s1.57,1.56,2.58,1.84l1.49.39c3.12.79,5.53,2.14,5.53,5.26a6.09,6.09,0,0,1-2.32,5.18,11,11,0,0,1-6.36,1.81,15.41,15.41,0,0,1-7.88-2.2l2.5-4a8.63,8.63,0,0,0,5.17,2c1.37,0,2.82-.59,2.82-1.94s-2.29-1.89-3.53-2.19c-3.66-.9-6.07-1.71-6.07-5.44,0-3.91,3.24-6.46,7.73-6.46a17.3,17.3,0,0,1,7,1.58Z" />
      <path d="M157,15.67h7.27v4.24H150.89V.66H157Z" />
      <path
        d="M277,17a1.45,1.45,0,1,1-1.44,1.45A1.43,1.43,0,0,1,277,17Zm0,.23a1.23,1.23,0,1,0,1.17,1.23A1.19,1.19,0,0,0,277,17.26Zm-.27,2.06h-.26V17.71a2.92,2.92,0,0,1,.46,0,.82.82,0,0,1,.5.12.38.38,0,0,1,.15.34.4.4,0,0,1-.31.39h0q.21,0,.27.39a1,1,0,0,0,.1.4h-.27a1.1,1.1,0,0,1-.11-.41.3.3,0,0,0-.35-.28h-.18Zm0-.89h.19c.21,0,.39-.08.39-.28s-.1-.28-.39-.28h-.19Z" />
      <path class="cls-1" d="M186.39.75h5.09l9.32,11.79h0V.75h5.09V20h-5.09L191.53,8.22h-.05V20h-5.09Z" />
      <path class="cls-1"
        d="M242.66,20h-6.39l-4.84-7.41h-.05V20h-5.13V.75h7.67c3.9,0,6.85,1.82,6.85,5.93a5.22,5.22,0,0,1-4.32,5.45ZM231.38,9.39h.5c1.67,0,3.56-.3,3.56-2.4s-1.89-2.4-3.56-2.4h-.5Z" />
      <path class="cls-1"
        d="M262.61,9.27c-.05,2.81-.26,5.21-2,7.62a9.65,9.65,0,0,1-8.15,3.78c-6.2,0-10.52-4.12-10.52-10.18,0-6.26,4.34-10.38,10.71-10.38,4.05,0,7.2,1.79,8.9,5.4l-4.87,2a4.46,4.46,0,0,0-4.27-3.07c-3.38,0-5.13,3.15-5.13,6.09s1.83,6,5.21,6c2.22,0,3.93-1.12,4.14-3.35h-4.19V9.27Z" />
      <path class="cls-1" d="M260.55.75h6.18L270.45,6,274.17.75h6.18l-7.32,10V20h-5.16V10.78Z" />
      <path class="cls-1"
        d="M179.15,5a5.52,5.52,0,0,1,4.44,2.13v-6a11.86,11.86,0,0,0-4.62-1,10.57,10.57,0,0,0-7.41,3.13,10.08,10.08,0,0,0-2.86,7.08,9.43,9.43,0,0,0,3.12,7.31,10.86,10.86,0,0,0,7.3,2.85,14.51,14.51,0,0,0,4.47-.9v-6a5.82,5.82,0,0,1-4.36,2.05,5,5,0,0,1-4.92-3.24h9.27V8.54h-9.33A5,5,0,0,1,179.15,5Z" />
      <path class="cls-1"
        d="M218.71,5a5.5,5.5,0,0,1,4.44,2.13v-6a11.89,11.89,0,0,0-4.62-1,10.57,10.57,0,0,0-7.41,3.13,10.09,10.09,0,0,0-2.87,7.08,9.39,9.39,0,0,0,3.13,7.31,10.86,10.86,0,0,0,7.3,2.85,14.22,14.22,0,0,0,4.47-.9v-6a5.84,5.84,0,0,1-4.37,2.06,5,5,0,0,1-4.9-3.2h9.26V8.54h-9.35A5,5,0,0,1,218.71,5Z" />
      <polygon class="cls-1" points="34.31 5.75 34.31 7.26 41.22 7.42 42.01 5.55 34.31 5.75" />
      <polygon class="cls-1" points="34.31 10.96 39.65 11.09 40.44 9.22 34.31 9.37 34.31 10.96" />
      <polygon class="cls-1" points="3.2 6.53 11.55 6.73 11.55 6.32 3.2 6.53" />
      <polygon class="cls-1" points="1.64 10.2 11.55 10.43 11.55 9.95 1.64 10.2" />
      <polygon class="cls-1" points="0 14 11.55 14.27 11.55 13.71 0 14" />
      <path d="M11.55,9.42a9.52,9.52,0,0,1,.63-2.68h-.63Z" />
      <path d="M14.76,3a12.53,12.53,0,0,1,6.07-3H11.55V6.32l.81,0A10.28,10.28,0,0,1,14.76,3Z" />
      <path d="M11.55,11.1v2.61l.57,0A9.29,9.29,0,0,1,11.55,11.1Z" />
      <path
        d="M15.05,17.68a10.12,10.12,0,0,1-1.71-1.76,8.5,8.5,0,0,1-1-1.63l-.81,0v6.27H22.26A13.15,13.15,0,0,1,15.05,17.68Z" />
      <path d="M23.37,4.79a6.16,6.16,0,0,0-4,1.33l7.84-.19A6.87,6.87,0,0,0,23.37,4.79Z" />
      <path d="M34.31,0h-8.7A15.45,15.45,0,0,1,28.4.82V5.9l5.91-.15Z" />
      <path d="M34.31,7.26,18.64,6.89A5.31,5.31,0,0,0,17.5,9.8l16.81-.43Z" />
      <path d="M28.4,14.66v5a22.18,22.18,0,0,1-4.09.88h10V14.8Z" />
      <path d="M34.31,11,17.5,10.57a5.1,5.1,0,0,0,1.1,3l15.71-.4Z" />
      <path d="M23.45,15.61a7.07,7.07,0,0,0,3.55-1l-7.43-.17A6.56,6.56,0,0,0,23.45,15.61Z" />
      <polygon class="cls-1" points="34.31 14.8 38.02 14.89 38.81 13.02 34.31 13.13 34.31 14.8" />
      <path
        d="M269.24,25.31h-1.18l3.62,9.07,2.47-6.4,2.46,6.4,3.62-9.07h-1.18l-2.44,6.24-2.46-6.43-2.47,6.43Zm-5.44,7.88a3.5,3.5,0,0,1-3.48-3.52,3.49,3.49,0,1,1,7,0,3.5,3.5,0,0,1-3.49,3.52m0-8.07a4.58,4.58,0,0,0-4.56,4.55,4.57,4.57,0,0,0,9.13,0,4.58,4.58,0,0,0-4.57-4.55m-8.93,1.16h.29c1.08,0,2.37.19,2.37,1.56s-1.2,1.6-2.31,1.6h-.35Zm1.59,3.95a2.37,2.37,0,0,0,2.09-2.44,2.41,2.41,0,0,0-1.14-2.08,4.68,4.68,0,0,0-2.31-.4h-1.31V34h1.08V30.34h.45L257.89,34h1.32Zm-7.72-3.95H249c1.07,0,2.37.19,2.37,1.56s-1.2,1.6-2.32,1.6h-.34Zm1.58,3.95a2.38,2.38,0,0,0,2.1-2.44,2.42,2.42,0,0,0-1.15-2.08,4.64,4.64,0,0,0-2.3-.4h-1.32V34h1.09V30.34h.45L251.76,34h1.31Zm-8.28,3a3.5,3.5,0,0,1-3.48-3.52,3.49,3.49,0,1,1,7,0A3.5,3.5,0,0,1,242,33.19m0-8.07a4.58,4.58,0,0,0-4.56,4.55,4.57,4.57,0,0,0,9.13,0A4.58,4.58,0,0,0,242,25.12m-9.6,9.09,2.61-5.94h0l1,5.76h1.12l-1.78-9.1-3,6.88-3-6.88L227.67,34h1.12l1-5.76h0Zm-9.61-1a3.5,3.5,0,0,1-3.48-3.52,3.49,3.49,0,1,1,7,0,3.5,3.5,0,0,1-3.49,3.52m0-8.07a4.58,4.58,0,0,0-4.56,4.55,4.57,4.57,0,0,0,9.13,0,4.58,4.58,0,0,0-4.57-4.55m-6.38,1.18h2.08v-1H213.3v1h2.07V34h1.08Zm-10.88,0h.29c1.08,0,2.37.19,2.37,1.56s-1.2,1.6-2.31,1.6h-.35Zm1.59,3.95a2.37,2.37,0,0,0,2.09-2.44,2.42,2.42,0,0,0-1.15-2.08,4.62,4.62,0,0,0-2.3-.4h-1.32V34h1.09V30.34H206L208.59,34h1.32ZM198.67,34h4.68V33h-3.59v-3.3h3.49v-1h-3.49V26.3h3.59v-1h-4.68Zm-2.78-7.73H198v-1h-5.23v1h2.07V34h1.09Zm-5.52,0h2.07v-1h-5.23v1h2.07V34h1.09ZM182,34h4.69V33h-3.6v-3.3h3.49v-1h-3.49V26.3h3.6v-1H182Zm-6.15,0h2c1.54,0,3-.7,3-2.44a2.23,2.23,0,0,0-1.74-2.21v0a1.86,1.86,0,0,0,.94-1.65c0-2-1.55-2.39-3.2-2.39h-1.06Zm1.09-4h.67c1,0,2.22.25,2.22,1.48s-1.05,1.54-2.06,1.54h-.83Zm0-3.76h.3c1,0,1.85.2,1.85,1.43s-.85,1.46-1.88,1.46h-.27Zm-7.68,4.57h-3.1l1.55-3.53Zm.45,1,1,2.19h1.17l-4.16-9.09L163.52,34h1.17l1-2.19Zm-13.78-5.56h.29c1.07,0,2.37.19,2.37,1.56s-1.2,1.6-2.31,1.6h-.35Zm1.58,3.95a2.37,2.37,0,0,0,2.1-2.44,2.42,2.42,0,0,0-1.15-2.08,4.62,4.62,0,0,0-2.3-.4h-1.32V34h1.09V30.34h.45L158.93,34h1.32Zm-8.27,3a3.5,3.5,0,0,1-3.49-3.52,3.49,3.49,0,1,1,7,0,3.5,3.5,0,0,1-3.48,3.52m0-8.07a4.58,4.58,0,0,0-4.57,4.55,4.57,4.57,0,0,0,9.13,0,4.58,4.58,0,0,0-4.56-4.55m-5.13,1.18v-1h-4.22V34H141V29.75h3v-1h-3V26.3Zm-14.25,0h.38c2.22,0,4.14.82,4.14,3.37S132.44,33,130.22,33h-.38ZM128.75,34h1.77c2.75,0,4.93-1.44,4.93-4.41s-2.22-4.31-4.9-4.31h-1.8Zm-3.24-8.72h-1.08V34h3.73V33h-2.65Zm-6.13,1h.29c1.08,0,2.37.19,2.37,1.56s-1.2,1.6-2.31,1.6h-.35ZM121,30.23a2.37,2.37,0,0,0,2.09-2.44,2.42,2.42,0,0,0-1.15-2.08,4.62,4.62,0,0,0-2.3-.4h-1.32V34h1.09V30.34h.45L122.4,34h1.32Zm-8.28,3a3.5,3.5,0,0,1-3.49-3.52,3.49,3.49,0,1,1,7,0,3.5,3.5,0,0,1-3.48,3.52m0-8.07a4.58,4.58,0,0,0-4.57,4.55,4.57,4.57,0,0,0,9.13,0,4.58,4.58,0,0,0-4.56-4.55m-15.25.19H96.26l3.62,9.07,2.46-6.4,2.47,6.4,3.62-9.07h-1.18l-2.44,6.24-2.47-6.43-2.46,6.43ZM87.86,34h4.69V33H89v-3.3h3.49v-1H89V26.3h3.6v-1H87.86ZM81.1,28.82V25.31H80V34H81.1V29.84h4.15V34h1.09V25.31H85.25v3.51ZM77.28,26.3h2.07v-1H74.12v1h2.07V34h1.09Zm-9.06-1H67.13V34h3.74V33H68.22ZM61.32,34H66V33H62.4v-3.3h3.5v-1H62.4V26.3H66v-1H61.32Zm-7.85-8.72v5.51a3.2,3.2,0,1,0,6.39,0V25.31H58.77v5.14c0,1.43-.43,2.74-2.11,2.74s-2.1-1.31-2.1-2.74V25.31Zm-.85,1v-1H48.4V34h1.09V29.75h3v-1h-3V26.3Z" />
    </g>
  </g>
</svg>