<svg
  height="36"
  viewBox="0 0 250 36"
  width="250"
  xmlns="http://www.w3.org/2000/svg"
  xmlns:xlink="http://www.w3.org/1999/xlink"
  preserveAspectRatio="xMidYMid"
  crossorigin="anonymous">
  <clipPath id="a">
    <path d="m78.594 88.271h238.812v25.956h-238.812z" height="36" width="396" />
  </clipPath>
  <rect x="0" y="0" width="250" height="36" fill="#FFF" rx="3" />
  <g transform="translate(-68.594 -86.843)">
    <path clip-path="url(#a)" clip-rule="evenodd"
      d="m118.863 99.479 1.23-1.015 1.455-.8 1.512-.509 1.602-.146 1.23.078 1.227.283 1.164.44v4.716l-.656-.722-.868-.508-.946-.361-1.016-.08-1.151.148-.947.439-.79.655-.654.869-.361 1.014-.147 1.096.147 1.161.361.937.654.88.79.654 1.015.361 1.162.147 1.297-.226 1.163-.575.947-.801v4.716l-1.242.372-1.08.282-1.164.079-1.511-.147-1.523-.439-1.377-.723-1.297-.948-1.094-1.229-.79-1.377-.44-1.534-.146-1.59.146-1.523.44-1.456.722-1.388z"
      fill-rule="evenodd" />
    <path
      d="m118.863 99.479 1.23-1.015 1.455-.8 1.512-.509 1.602-.146 1.23.078 1.227.283 1.164.44v4.716l-.656-.722-.868-.508-.946-.361-1.016-.08-1.151.148-.947.439-.79.655-.654.869-.361 1.014-.147 1.096.147 1.161.361.937.654.88.79.654 1.015.361 1.162.147 1.297-.226 1.163-.575.947-.801v4.716l-1.242.372-1.08.282-1.164.079-1.511-.147-1.523-.439-1.377-.723-1.297-.948-1.094-1.229-.79-1.377-.44-1.534-.146-1.59.146-1.523.44-1.456.722-1.388z"
      style="fill:none;stroke:#000;stroke-width:.202;stroke-linejoin:round;stroke-miterlimit:10;clip-path:url(#a)" />
    <path clip-path="url(#a)" clip-rule="evenodd"
      d="m138.052 96.941 1.662.146 1.519.429 1.458.733 1.298.869 1.08 1.162.804 1.376.508 1.456.212 1.669-.147 1.738-.508 1.681-.72 1.377-1.086 1.229-1.227 1.017-1.446.732-1.602.43-1.805.146-1.814-.146-1.593-.43-1.44-.732-1.232-1.017-1.016-1.229-.721-1.377-.508-1.681-.147-1.738.217-1.669.508-1.456.799-1.376 1.085-1.162 1.228-.869 1.455-.733 1.514-.429zm0 3.848-1.376.214-1.163.586-.933.869-.577 1.095-.227 1.229.147 1.23.439 1.094.646.948.868.723 1.016.439 1.159.146 1.163-.146 1.002-.439.872-.723.729-.948.43-1.094.147-1.23-.212-1.229-.656-1.095-.937-.869-1.164-.586z"
      fill-rule="evenodd" />
    <path
      d="m138.052 96.941 1.662.146 1.519.429 1.458.733 1.298.869 1.08 1.162.804 1.376.508 1.456.212 1.669-.147 1.738-.508 1.681-.72 1.377-1.086 1.229-1.227 1.017-1.446.732-1.602.43-1.805.146-1.814-.146-1.593-.43-1.44-.732-1.232-1.017-1.016-1.229-.721-1.377-.508-1.681-.147-1.738.217-1.669.508-1.456.799-1.376 1.085-1.162 1.228-.869 1.455-.733 1.514-.429zm0 3.848-1.376.214-1.163.586-.933.869-.577 1.095-.227 1.229.147 1.23.439 1.094.646.948.868.723 1.016.439 1.159.146 1.163-.146 1.002-.439.872-.723.729-.948.43-1.094.147-1.23-.212-1.229-.656-1.095-.937-.869-1.164-.586z"
      style="fill:none;stroke:#000;stroke-width:.202;stroke-linejoin:round;stroke-miterlimit:10;clip-path:url(#a)" />
    <path clip-path="url(#a)" clip-rule="evenodd"
      d="m186.992 96.941 1.671.146 1.51.429 1.454.654 1.232.948 1.08 1.083.804 1.388.508 1.444.212 1.682-.147 1.805-.508 1.602-.72 1.456-1.016 1.229-1.229.948-1.444.723-1.594.508-1.813.146-1.806-.146-1.602-.508-1.445-.723-1.228-.948-1.016-1.229-.725-1.456-.508-1.602-.144-1.805.213-1.682.507-1.444.804-1.388 1.08-1.083 1.233-.948 1.454-.654 1.51-.429zm0 3.768-1.376.226-1.163.575-.938.948-.65 1.095-.218 1.162.148 1.297.429 1.094.734.869.868.733 1.001.429 1.164.146 1.163-.146 1.016-.429.868-.733.72-.869.43-1.094.148-1.297-.218-1.162-.65-1.095-.938-.948-1.164-.575z"
      fill-rule="evenodd" />
    <path
      d="m186.992 96.941 1.671.146 1.51.429 1.454.654 1.232.948 1.08 1.083.804 1.388.508 1.444.212 1.682-.147 1.805-.508 1.602-.72 1.456-1.016 1.229-1.229.948-1.444.723-1.594.508-1.813.146-1.806-.146-1.602-.508-1.445-.723-1.228-.948-1.016-1.229-.725-1.456-.508-1.602-.144-1.805.213-1.682.507-1.444.804-1.388 1.08-1.083 1.233-.948 1.454-.654 1.51-.429zm0 3.768-1.376.226-1.163.575-.938.948-.65 1.095-.218 1.162.148 1.297.429 1.094.734.869.868.733 1.001.429 1.164.146 1.163-.146 1.016-.429.868-.733.72-.869.43-1.094.148-1.297-.218-1.162-.65-1.095-.938-.948-1.164-.575z"
      style="fill:none;stroke:#000;stroke-width:.202;stroke-linejoin:round;stroke-miterlimit:10;clip-path:url(#a)" />
    <path clip-path="url(#a)" clip-rule="evenodd"
      d="m159.195 112.555-7.243-9.296h-.069v9.296h-3.98v-15.106h3.98l7.312 9.217v-9.217h3.98v15.106z"
      fill-rule="evenodd" />
    <path d="m159.195 112.555-7.243-9.296h-.069v9.296h-3.98v-15.106h3.98l7.312 9.217v-9.217h3.98v15.106z"
      style="fill:none;stroke:#000;stroke-width:.202;stroke-linejoin:round;stroke-miterlimit:10;clip-path:url(#a)" />
    <path clip-path="url(#a)" clip-rule="evenodd"
      d="m166.355 108.121 1.233.801 1.376.508 1.445.214.652-.067.59-.147.503-.293.365-.429.133-.587-.133-.507-.365-.362-.503-.293-.656-.214-2.326-.587-1.002-.361-.868-.44-.735-.507-.498-.722-.291-.869-.147-1.094.147-1.23.43-1.163.734-.947.868-.721 1.149-.587 1.229-.294 1.459-.136 1.375.068 1.44.215 1.445.44 1.233.507-1.805 3.047-.873-.509-1.011-.36-1.163-.147-.499.079-.508.147-.507.215-.292.44-.147.428.147.44.361.361.438.214.577.226.508.135 1.228.373 1.164.361 1.006.428.868.587.651.722.444.948.142 1.094-.078.869-.143.868-.365.869-.508.802-.72.653-1.085.655-1.228.44-1.306.214-1.381.068-1.588-.068-1.593-.361-1.523-.508-1.441-.734z"
      fill-rule="evenodd" />
    <path
      d="m166.355 108.121 1.233.801 1.376.508 1.445.214.652-.067.59-.147.503-.293.365-.429.133-.587-.133-.507-.365-.362-.503-.293-.656-.214-2.326-.587-1.002-.361-.868-.44-.735-.507-.498-.722-.291-.869-.147-1.094.147-1.23.43-1.163.734-.947.868-.721 1.149-.587 1.229-.294 1.459-.136 1.375.068 1.44.215 1.445.44 1.233.507-1.805 3.047-.873-.509-1.011-.36-1.163-.147-.499.079-.508.147-.507.215-.292.44-.147.428.147.44.361.361.438.214.577.226.508.135 1.228.373 1.164.361 1.006.428.868.587.651.722.444.948.142 1.094-.078.869-.143.868-.365.869-.508.802-.72.653-1.085.655-1.228.44-1.306.214-1.381.068-1.588-.068-1.593-.361-1.523-.508-1.441-.734z"
      style="fill:none;stroke:#000;stroke-width:.202;stroke-linejoin:round;stroke-miterlimit:10;clip-path:url(#a)" />
    <path clip-path="url(#a)" clip-rule="evenodd" d="m207.559 109.216v3.339h-10.502v-15.106h4.782v11.767z"
      fill-rule="evenodd" />
    <path d="m207.559 109.216v3.339h-10.502v-15.106h4.782v11.767z"
      style="fill:none;stroke:#000;stroke-width:.202;stroke-linejoin:round;stroke-miterlimit:10;clip-path:url(#a)" />
    <path clip-path="url(#a)" clip-rule="evenodd"
      d="m236.293 106.745v-9.228h3.979v15.185h-3.979l-7.314-9.296h-.063v9.296h-3.985v-15.185h3.985l7.308 9.228z"
      fill="#dd1e39" fill-rule="evenodd" />
    <path d="m236.293 106.745v-9.228h3.979v15.185h-3.979l-7.314-9.296h-.063v9.296h-3.985v-15.185h3.985l7.308 9.228z"
      style="fill:none;stroke:#dd1e39;stroke-width:.202;stroke-linejoin:round;stroke-miterlimit:10;clip-path:url(#a)" />
    <path clip-path="url(#a)" clip-rule="evenodd"
      d="m256.204 97.517h6.011l1.232.079 1.159.282 1.006.44.799.654.655.869.36 1.015.148 1.309-.079 1.015-.281.948-.508.868-.656.655-.798.508-1.007.293 4.838 6.25h-4.986l-3.836-5.89v5.89h-4.058v-15.185zm4.058 2.978v3.78h1.007l.655-.146.572-.147.509-.361.294-.507.148-.723-.148-.733-.294-.507-.509-.294-.572-.214-.655-.147h-1.007z"
      fill="#dd1e39" fill-rule="evenodd" />
    <path
      d="m256.204 97.517h6.011l1.232.079 1.159.282 1.006.44.799.654.655.869.36 1.015.148 1.309-.079 1.015-.281.948-.508.868-.656.655-.798.508-1.007.293 4.838 6.25h-4.986l-3.836-5.89v5.89h-4.058v-15.185zm4.058 2.978v3.78h1.007l.655-.146.572-.147.509-.361.294-.507.148-.723-.148-.733-.294-.507-.509-.294-.572-.214-.655-.147h-1.007z"
      style="fill:none;stroke:#dd1e39;stroke-width:.202;stroke-linejoin:round;stroke-miterlimit:10;clip-path:url(#a)" />
    <path clip-path="url(#a)" clip-rule="evenodd"
      d="m280.967 112.195-1.311.575-1.376.293-1.509.147-1.741-.147-1.588-.44-1.46-.723-1.158-.946-1.006-1.163-.734-1.376-.425-1.523-.147-1.749.147-1.737.425-1.602.803-1.377.937-1.162 1.242-.948 1.441-.722 1.593-.44 1.814-.146 1.514.146 1.376.294 1.306.575 1.085.88.937 1.015.735 1.31-3.772 1.59-.508-1.015-.799-.722-.936-.508-1.164-.147-1.01.147-.939.361-.724.654-.573.801-.374.869-.281.936-.079 1.027.079 1.015.281.937.439.88.577.722.721.654.951.361 1.015.146 1.011-.067.872-.372.642-.508.508-.722.226-.948h-3.259v-3.125h7.962l-.078 1.602-.216 1.523-.508 1.456-.799 1.455-1.006 1.082z"
      fill="#dd1e39" fill-rule="evenodd" />
    <path
      d="m280.967 112.195-1.311.575-1.376.293-1.509.147-1.741-.147-1.588-.44-1.46-.723-1.158-.946-1.006-1.163-.734-1.376-.425-1.523-.147-1.749.147-1.737.425-1.602.803-1.377.937-1.162 1.242-.948 1.441-.722 1.593-.44 1.814-.146 1.514.146 1.376.294 1.306.575 1.085.88.937 1.015.735 1.31-3.772 1.59-.508-1.015-.799-.722-.936-.508-1.164-.147-1.01.147-.939.361-.724.654-.573.801-.374.869-.281.936-.079 1.027.079 1.015.281.937.439.88.577.722.721.654.951.361 1.015.146 1.011-.067.872-.372.642-.508.508-.722.226-.948h-3.259v-3.125h7.962l-.078 1.602-.216 1.523-.508 1.456-.799 1.455-1.006 1.082z"
      style="fill:none;stroke:#dd1e39;stroke-width:.202;stroke-linejoin:round;stroke-miterlimit:10;clip-path:url(#a)" />
    <path clip-path="url(#a)" clip-rule="evenodd"
      d="m293.783 97.517h4.848l-5.721 7.84v7.345h-4.057v-7.345l-5.721-7.84h4.852l2.9 4.14z" fill="#dd1e39"
      fill-rule="evenodd" />
    <path d="m293.783 97.517h4.848l-5.721 7.84v7.345h-4.057v-7.345l-5.721-7.84h4.852l2.9 4.14z"
      style="fill:none;stroke:#dd1e39;stroke-width:.202;stroke-linejoin:round;stroke-miterlimit:10;clip-path:url(#a)" />
    <path clip-path="url(#a)" clip-rule="evenodd"
      d="m214.507 98.464 1.444-.8 1.589-.509 1.593-.146 1.814.214 1.805.587v4.716l-.72-.722-.789-.508-.947-.361-1.016-.08-1.085.148-.937.361-.799.587-.655.8-.429.869h7.377v3.046h-7.308l.573 1.016.872.8 1.093.508 1.298.226 1.307-.226 1.149-.575 1.016-.801v4.716l-1.229.372-1.148.282-1.164.079-1.523-.147-1.523-.439-1.376-.723-1.298-.948-1.085-1.229-.799-1.377-.428-1.534-.149-1.59.149-1.523.428-1.456.72-1.388.951-1.23z"
      fill="#dd1e39" fill-rule="evenodd" />
    <path
      d="m214.507 98.464 1.444-.8 1.589-.509 1.593-.146 1.814.214 1.805.587v4.716l-.72-.722-.789-.508-.947-.361-1.016-.08-1.085.148-.937.361-.799.587-.655.8-.429.869h7.377v3.046h-7.308l.573 1.016.872.8 1.093.508 1.298.226 1.307-.226 1.149-.575 1.016-.801v4.716l-1.229.372-1.148.282-1.164.079-1.523-.147-1.523-.439-1.376-.723-1.298-.948-1.085-1.229-.799-1.377-.428-1.534-.149-1.59.149-1.523.428-1.456.72-1.388.951-1.23z"
      style="fill:none;stroke:#dd1e39;stroke-width:.202;stroke-linejoin:round;stroke-miterlimit:10;clip-path:url(#a)" />
    <path clip-path="url(#a)" clip-rule="evenodd"
      d="m244.335 99.479 1.228-1.094 1.445-.721 1.523-.509 1.593-.146 1.228.078 1.228.283 1.163.372v4.784l-.655-.722-.868-.508-.938-.361-1.014-.08-1.308.227-1.149.507-.803.869-.572 1.162h7.307v3.046h-7.243l.586 1.016.868.8 1.085.508 1.298.226.945-.147.938-.293.868-.508.655-.722v4.784l-1.227.372-1.086.214-1.162.068-1.52-.135-1.523-.441-1.38-.654-1.299-.948-1.079-1.229-.803-1.377-.425-1.534-.147-1.67.147-1.523.425-1.455.724-1.376z"
      fill="#dd1e39" fill-rule="evenodd" />
    <path
      d="m244.335 99.479 1.228-1.094 1.445-.721 1.523-.509 1.593-.146 1.228.078 1.228.283 1.163.372v4.784l-.655-.722-.868-.508-.938-.361-1.014-.08-1.308.227-1.149.507-.803.869-.572 1.162h7.307v3.046h-7.243l.586 1.016.868.8 1.085.508 1.298.226.945-.147.938-.293.868-.508.655-.722v4.784l-1.227.372-1.086.214-1.162.068-1.52-.135-1.523-.441-1.38-.654-1.299-.948-1.079-1.229-.803-1.377-.425-1.534-.147-1.67.147-1.523.425-1.455.724-1.376z"
      style="fill:none;stroke:#dd1e39;stroke-width:.202;stroke-linejoin:round;stroke-miterlimit:10;clip-path:url(#a)" />
    <path clip-path="url(#a)" clip-rule="evenodd" d="m105.619 101.442 6.013-.146-.587 1.455-5.426-.147z" fill="#dd1e39"
      fill-rule="evenodd" />
    <path d="m105.619 101.442 6.013-.146-.587 1.455-5.426-.147z"
      style="fill:none;stroke:#dd1e39;stroke-width:.202;stroke-linejoin:round;stroke-miterlimit:10;clip-path:url(#a)" />
    <path clip-path="url(#a)" clip-rule="evenodd" d="m105.619 104.274 4.772-.146-.576 1.522-4.196-.146z" fill="#dd1e39"
      fill-rule="evenodd" />
    <path d="m105.619 104.274 4.772-.146-.576 1.522-4.196-.146z"
      style="fill:none;stroke:#dd1e39;stroke-width:.202;stroke-linejoin:round;stroke-miterlimit:10;clip-path:url(#a)" />
    <path clip-path="url(#a)" clip-rule="evenodd" d="m87.738 101.871v.294l-6.521-.147z" fill="#dd1e39"
      fill-rule="evenodd" />
    <path d="m87.738 101.871v.294l-6.521-.147z"
      style="fill:none;stroke:#dd1e39;stroke-width:.202;stroke-linejoin:round;stroke-miterlimit:10;clip-path:url(#a)" />
    <path clip-path="url(#a)" clip-rule="evenodd" d="m87.738 104.715v.428l-7.75-.214z" fill="#dd1e39"
      fill-rule="evenodd" />
    <path d="m87.738 104.715v.428l-7.75-.214z"
      style="fill:none;stroke:#dd1e39;stroke-width:.202;stroke-linejoin:round;stroke-miterlimit:10;clip-path:url(#a)" />
    <path clip-path="url(#a)" clip-rule="evenodd" d="m87.738 107.682v.439l-9.048-.214z" fill="#dd1e39"
      fill-rule="evenodd" />
    <path d="m87.738 107.682v.439l-9.048-.214z"
      style="fill:none;stroke:#dd1e39;stroke-width:.202;stroke-linejoin:round;stroke-miterlimit:10;clip-path:url(#a)" />
    <path clip-path="url(#a)" clip-rule="evenodd" d="m87.738 104.342v-2.177l.508.079-.361 1.015z" fill-rule="evenodd" />
    <path d="m87.738 104.342v-2.177l.508.079-.361 1.015z"
      style="fill:none;stroke:#000;stroke-width:.202;stroke-linejoin:round;stroke-miterlimit:10;clip-path:url(#a)" />
    <path clip-path="url(#a)" clip-rule="evenodd"
      d="m87.738 101.871v-4.93h7.31l-1.737.508-1.591.801-1.455 1.015-1.083 1.23-.79 1.376z" fill-rule="evenodd" />
    <path d="m87.738 101.871v-4.93h7.31l-1.737.508-1.591.801-1.455 1.015-1.083 1.23-.79 1.376z"
      style="fill:none;stroke:#000;stroke-width:.202;stroke-linejoin:round;stroke-miterlimit:10;clip-path:url(#a)" />
    <path clip-path="url(#a)" clip-rule="evenodd" d="m87.738 107.682v-2.032l.147 1.016.282 1.016z"
      fill-rule="evenodd" />
    <path d="m87.738 107.682v-2.032l.147 1.016.282 1.016z"
      style="fill:none;stroke:#000;stroke-width:.202;stroke-linejoin:round;stroke-miterlimit:10;clip-path:url(#a)" />
    <path clip-path="url(#a)" clip-rule="evenodd"
      d="m91.72 111.687 1.376.721 1.512.441 1.523.214h-8.393v-4.942h.654l.361.722.429.587.575.722.733.654z"
      fill-rule="evenodd" />
    <path d="m91.72 111.687 1.376.721 1.512.441 1.523.214h-8.393v-4.942h.654l.361.722.429.587.575.722.733.654z"
      style="fill:none;stroke:#000;stroke-width:.202;stroke-linejoin:round;stroke-miterlimit:10;clip-path:url(#a)" />
    <path clip-path="url(#a)" clip-rule="evenodd"
      d="m93.886 101.736.869-.587 1.095-.36 1.15-.147 1.083.147 1.016.293.947.507z" fill-rule="evenodd" />
    <path d="m93.886 101.736.869-.587 1.095-.36 1.15-.147 1.083.147 1.016.293.947.507z"
      style="fill:none;stroke:#000;stroke-width:.202;stroke-linejoin:round;stroke-miterlimit:10;clip-path:url(#a)" />
    <path clip-path="url(#a)" clip-rule="evenodd" d="m100.982 97.517-2.166-.576h6.803v4.501l-4.637.068z"
      fill-rule="evenodd" />
    <path d="m100.982 97.517-2.166-.576h6.803v4.501l-4.637.068z"
      style="fill:none;stroke:#000;stroke-width:.202;stroke-linejoin:round;stroke-miterlimit:10;clip-path:url(#a)" />
    <path clip-path="url(#a)" clip-rule="evenodd" d="m92.735 103.406.576-1.094 12.308.292v1.67l-13.177.361z"
      fill-rule="evenodd" />
    <path d="m92.735 103.406.576-1.094 12.308.292v1.67l-13.177.361z"
      style="fill:none;stroke:#000;stroke-width:.202;stroke-linejoin:round;stroke-miterlimit:10;clip-path:url(#a)" />
    <path clip-path="url(#a)" clip-rule="evenodd" d="m97.722 113.063 1.602-.214 1.658-.441v-3.993l4.637.146v4.502z"
      fill-rule="evenodd" />
    <path d="m97.722 113.063 1.602-.214 1.658-.441v-3.993l4.637.146v4.502z"
      style="fill:none;stroke:#000;stroke-width:.202;stroke-linejoin:round;stroke-miterlimit:10;clip-path:url(#a)" />
    <path clip-path="url(#a)" clip-rule="evenodd" d="m93.311 107.546-.44-.733-.282-.722-.147-.869 13.177.282v1.748z"
      fill-rule="evenodd" />
    <path d="m93.311 107.546-.44-.733-.282-.722-.147-.869 13.177.282v1.748z"
      style="fill:none;stroke:#000;stroke-width:.202;stroke-linejoin:round;stroke-miterlimit:10;clip-path:url(#a)" />
    <path clip-path="url(#a)" clip-rule="evenodd"
      d="m97.079 109.216-1.162-.147-1.016-.293-.868-.508 5.866.147-1.376.575z" fill-rule="evenodd" />
    <path d="m97.079 109.216-1.162-.147-1.016-.293-.868-.508 5.866.147-1.376.575z"
      style="fill:none;stroke:#000;stroke-width:.202;stroke-linejoin:round;stroke-miterlimit:10;clip-path:url(#a)" />
    <path clip-path="url(#a)" clip-rule="evenodd" d="m105.619 107.252 3.543-.078-.644 1.455-2.899-.068z" fill="#dd1e39"
      fill-rule="evenodd" />
    <path d="m105.619 107.252 3.543-.078-.644 1.455-2.899-.068z"
      style="fill:none;stroke:#dd1e39;stroke-width:.202;stroke-linejoin:round;stroke-miterlimit:10;clip-path:url(#a)" />
  </g>
</svg>